# xmcd CD database file
# Copyright (C) 1995-1998 Ti Kan
#
# Track frame offsets:
#	182
#	13840
#	27207
#	41880
#	56165
#	69005
#	83190
#	96337
#	108727
#	121692
#	136517
#	150402
#	164610
#	178212
#
# Disc length: 2549 seconds
#
# Revision: 2
# Processed by: cddbd v1.4PL0 Copyright (c) Steve Scherf et al.
# Submitted via: CDex 1.30Release
#
DISCID=b509f30e
DTITLE=Blind Willie McTell - 1927-1935
DYEAR=1991
DGENRE=Blues
TTITLE0=Scarey Day Blues
TTITLE1=Kind Mama
TTITLE2=Ticket Agent Blues
TTITLE3=Experience Blues
TTITLE4=It's A Good Little Thing
TTITLE5=Atlanta Strut
TTITLE6=Southern Can Mama
TTITLE7=God Don't Like It
TTITLE8=Painful Blues
TTITLE9=Razor Ball
TTITLE10=Cold Winter Day
TTITLE11=Stole Rider Blues
TTITLE12=B&O Blues No. 2
TTITLE13=My Baby's Gone
EXTD=YEAR: 1991 ID3G:   0
EXTT0=
EXTT1=
EXTT2=
EXTT3=
EXTT4=
EXTT5=
EXTT6=
EXTT7=
EXTT8=
EXTT9=
EXTT10=
EXTT11=
EXTT12=
EXTT13=
PLAYORDER=
